<?xml version="1.0" encoding="UTF-8"?>
<svg id="Layer_2" xmlns="http://www.w3.org/2000/svg" viewBox="0 0 223.38 106.98">
  <defs>
    <style>
      .cls-1 {
        fill: rgb(207, 65, 65);
      }
    </style>
  </defs>
  <g id="Layer_1-2" data-name="Layer_1">
    <g>
      <path class="cls-1" d="M221.45,46.08c-3.91-15.06-15.2-22.14-30.45-17.13,30.13-3.34,29.95,25.26,25.88,46.81-5.95,31.49-29.14,21.75-31.36,24.55-.35.45-1.04,5.68,1.9,6.47,1.05.28,31.64.25,32.69,0,3.6-.84,3.1-7.37,3.23-15.6,0-.38,0-.76,0-1.14.13-9.15-.03-36.74-1.9-43.96Z"/>
      <path class="cls-1" d="M207.18,53.12c-1.73.12-24.99,7.22-33.49,9.13-23.05,5.19-42.08,11.76-61.99,11.75-19.92,0-38.94-6.56-61.99-11.75-8.5-1.91-31.76-9.01-33.49-9.13-7.7-.53-3.55,14.33,3.04,15.98,3.28.82,59.96,6.04,67.36,6.47,8.29.48,16.7.81,25.08.87h0c8.38-.06,16.79-.39,25.08-.87,7.4-.43,64.08-5.65,67.36-6.47,6.59-1.65,10.75-16.52,3.04-15.98Z"/>
      <path class="cls-1" d="M6.5,75.76C2.43,54.21,2.25,25.61,32.38,28.96c-15.24-5.02-26.53,2.07-30.45,17.13C.06,53.3-.09,80.89.03,90.04c0,.38,0,.76,0,1.14.14,8.23-.36,14.76,3.23,15.6,1.06.25,31.64.28,32.69,0,2.94-.79,2.26-6.02,1.9-6.47-2.22-2.8-25.41,6.94-31.36-24.55Z"/>
      <path class="cls-1" d="M111.69,84.96h0c-28.78.24-60.97,3.8-87.68,10.21,29.14-2.24,58.41-3.56,87.68-3.63,29.27.07,58.55,1.39,87.68,3.63-26.72-6.41-58.9-9.97-87.68-10.21h0s0,0,0,0Z"/>
      <path class="cls-1" d="M32.19,27.24c25.22,8.71,47.64,14.79,66.6,35.01-8.13-11.31-20-19.91-32.73-25.5v-.76c14.99,2.73,30.31,4.13,45.63,4.14h0c15.32-.01,30.64-1.41,45.63-4.14v.76c-12.73,5.59-24.59,14.18-32.73,25.5,18.96-20.22,41.38-26.3,66.6-35.01,8.31-1.78,20.16.58,21.12-4.38,1.35-6.97-11.33-6.35-15.03-5.52-5.38,1.2-.7,10.08-8.37,7.61-5.87-1.89-14.55-21.42-34.63-24.36-2.1-.31-22.54-.53-42.58-.6h0c-20.05.08-40.49.3-42.58.6-20.08,2.94-28.76,22.46-34.63,24.36-7.67,2.47-2.99-6.41-8.37-7.61-3.71-.83-16.39-1.45-15.03,5.52.96,4.95,12.81,2.59,21.12,4.38ZM68.73,3.27c2.1-.34,22.74-.55,42.97-.61,20.23.06,40.86.27,42.97.61,15.75,2.56,20.58,14.24,31.78,23.02.06,1.45-25.38,6.97-27.97,7.42-14.55,2.52-30.54,3.89-46.77,3.9-16.23,0-32.22-1.37-46.77-3.9-2.59-.45-28.03-5.97-27.97-7.42,11.19-8.78,16.03-20.46,31.78-23.02Z"/>
    </g>
  </g>
</svg>